<svg width="25" height="24" fill="none" xmlns="http://www.w3.org/2000/svg"><path fill-rule="evenodd" clip-rule="evenodd" d="M8.58 0h7.5c1 0 1.95.38 2.65 1.05.7.68 1.1 1.6 1.1 2.55v16.8c0 .95-.4 1.87-1.1 2.55A3.83 3.83 0 0 1 16.08 24h-7.5c-1 0-1.95-.38-2.65-1.05-.7-.68-1.1-1.6-1.1-2.55V3.6c0-.95.4-1.87 1.1-2.55A3.83 3.83 0 0 1 8.58 0ZM7.33 2.92h10c.35 0 .63.27.63.6v12.3c0 .33-.28.6-.63.6h-10a.61.61 0 0 1-.62-.6V3.52c0-.33.28-.6.62-.6Zm5 18c1.04 0 1.88-.8 1.88-1.8s-.84-1.8-1.88-1.8c-1.03 0-1.87.8-1.87 1.8s.84 1.8 1.87 1.8Z" fill="#fff"/></svg>
