<svg width="25" height="24"  fill="none" xmlns="http://www.w3.org/2000/svg"><path d="M11.98 0A12.01 12.01 0 0 0 0 11.04l6.44 2.66a3.38 3.38 0 0 1 2.1-.59l2.87-4.14V8.9a4.53 4.53 0 1 1 4.54 4.52h-.1l-4.1 2.91.01.16a3.4 3.4 0 0 1-6.74.67l-4.6-1.9A12.02 12.02 0 0 0 24 12c0-6.63-5.38-12-12.02-12ZM7.53 18.2l-1.47-.6a2.56 2.56 0 0 0 4.66-2.07 2.54 2.54 0 0 0-3.27-1.42l1.53.63a1.88 1.88 0 1 1-1.45 3.47Zm11.44-9.3a3.02 3.02 0 1 0-6.05.02 3.02 3.02 0 0 0 6.05-.01Zm-5.29 0a2.27 2.27 0 1 1 4.54 0 2.27 2.27 0 0 1-4.54 0Z" fill="#fff"/></svg>
